<svg width="18" height="16" viewBox="0 0 18 16" fill="none" xmlns="http://www.w3.org/2000/svg">
<path fill-rule="evenodd" clip-rule="evenodd" d="M1.6626 8.9376C1.6626 8.50958 2.00958 8.1626 2.4376 8.1626H6.8126C7.24062 8.1626 7.5876 8.50958 7.5876 8.9376C7.5876 9.36562 7.24062 9.7126 6.8126 9.7126H3.2126V14.5626C3.2126 14.9906 2.86562 15.3376 2.4376 15.3376C2.00958 15.3376 1.6626 14.9906 1.6626 14.5626V8.9376Z" fill="white"/>
<path fill-rule="evenodd" clip-rule="evenodd" d="M0.412598 14.5626C0.412598 14.1346 0.759577 13.7876 1.1876 13.7876H16.8126C17.2406 13.7876 17.5876 14.1346 17.5876 14.5626C17.5876 14.9906 17.2406 15.3376 16.8126 15.3376H1.1876C0.759577 15.3376 0.412598 14.9906 0.412598 14.5626Z" fill="white"/>
<path fill-rule="evenodd" clip-rule="evenodd" d="M6.0376 5.1876C6.0376 4.75958 6.38458 4.4126 6.8126 4.4126H11.1876C11.6156 4.4126 11.9626 4.75958 11.9626 5.1876C11.9626 5.61562 11.6156 5.9626 11.1876 5.9626H7.5876V14.5626C7.5876 14.9906 7.24062 15.3376 6.8126 15.3376C6.38458 15.3376 6.0376 14.9906 6.0376 14.5626V5.1876Z" fill="white"/>
<path fill-rule="evenodd" clip-rule="evenodd" d="M10.4126 1.4376C10.4126 1.00958 10.7596 0.662598 11.1876 0.662598H15.5626C15.9906 0.662598 16.3376 1.00958 16.3376 1.4376V14.5626C16.3376 14.9906 15.9906 15.3376 15.5626 15.3376H11.1876C10.7596 15.3376 10.4126 14.9906 10.4126 14.5626V1.4376ZM11.9626 2.2126V13.7876H14.7876V2.2126H11.9626Z" fill="white"/>
</svg>
