<svg width="20" height="16" viewBox="0 0 20 16" fill="none" xmlns="http://www.w3.org/2000/svg">
<path fill-rule="evenodd" clip-rule="evenodd" d="M0.833496 1.03682C0.833496 0.652161 1.14397 0.340332 1.52695 0.340332H13.0813C13.4643 0.340332 13.7748 0.652161 13.7748 1.03682V11.0945C13.7748 11.4791 13.4643 11.791 13.0813 11.791H1.52695C1.14397 11.791 0.833496 11.4791 0.833496 11.0945V1.03682ZM2.2204 1.73331V10.398H12.3879V1.73331H2.2204Z" fill="white"/>
<path fill-rule="evenodd" clip-rule="evenodd" d="M12.3879 4.90518C12.3879 4.52052 12.6983 4.20869 13.0813 4.20869H16.1625C16.3464 4.20869 16.5228 4.28207 16.6528 4.41269L18.9637 6.73369C19.0938 6.8643 19.1668 7.04146 19.1668 7.22618V11.0945C19.1668 11.4792 18.8564 11.791 18.4734 11.791L13.0813 11.791C12.6984 11.791 12.3879 11.4792 12.3879 11.0945V4.90518ZM13.7748 5.60167V10.398H17.7799V7.51467L15.8753 5.60167H13.7748Z" fill="white"/>
<path fill-rule="evenodd" clip-rule="evenodd" d="M4.99322 11.791C4.31265 11.791 3.76094 12.3451 3.76094 13.0286C3.76094 13.7122 4.31265 14.2663 4.99322 14.2663C5.67379 14.2663 6.2255 13.7122 6.2255 13.0286C6.2255 12.3451 5.67379 11.791 4.99322 11.791ZM2.37404 13.0286C2.37404 11.5758 3.54668 10.398 4.99322 10.398C6.43975 10.398 7.6124 11.5758 7.6124 13.0286C7.6124 14.4815 6.43975 15.6593 4.99322 15.6593C3.54668 15.6593 2.37404 14.4815 2.37404 13.0286Z" fill="white"/>
<path fill-rule="evenodd" clip-rule="evenodd" d="M15.0071 11.791C14.3265 11.791 13.7748 12.3451 13.7748 13.0286C13.7748 13.7122 14.3265 14.2663 15.0071 14.2663C15.6876 14.2663 16.2393 13.7122 16.2393 13.0286C16.2393 12.3451 15.6876 11.791 15.0071 11.791ZM12.3879 13.0286C12.3879 11.5758 13.5605 10.398 15.0071 10.398C16.4536 10.398 17.6262 11.5758 17.6262 13.0286C17.6262 14.4815 16.4536 15.6593 15.0071 15.6593C13.5605 15.6593 12.3879 14.4815 12.3879 13.0286Z" fill="white"/>
</svg>
