<svg width="18" height="19" viewBox="0 0 18 19" fill="none" xmlns="http://www.w3.org/2000/svg">
<path fill-rule="evenodd" clip-rule="evenodd" d="M17.8081 7.41667C17.6831 7.16667 17.4248 7 17.1414 7H10.0914L10.8664 0.816667C10.9081 0.5 10.7331 0.183333 10.4331 0.0583333C10.3414 0.0166667 10.2414 0 10.1498 0C9.93309 0 9.72476 0.0916667 9.58309 0.258333L0.833095 10.7583C0.649761 10.975 0.616428 11.2833 0.733095 11.5333C0.849761 11.7917 1.11643 11.9583 1.39143 11.9583H8.44143L7.66643 18.1333C7.63309 18.4583 7.80809 18.7667 8.09976 18.9C8.39976 19.025 8.74976 18.9417 8.95809 18.6917L17.7081 8.19167C17.8831 7.975 17.9248 7.675 17.8081 7.41667ZM9.42476 15.85L9.99143 11.3167C10.0164 11.1083 9.94976 10.9 9.81643 10.7417C9.67476 10.5917 9.47476 10.5 9.26643 10.5H2.94976L9.10809 3.10833L8.54143 7.63333C8.51643 7.84167 8.58309 8.05 8.72476 8.20833C8.85809 8.36667 9.05809 8.45833 9.26643 8.45833H15.5831L9.42476 15.85Z" fill="white"/>
</svg>
