<svg width="18" height="18" viewBox="0 0 18 18" fill="none" xmlns="http://www.w3.org/2000/svg">
<path d="M16.0807 9.83317C16.7711 9.83317 17.3307 10.3928 17.3307 11.0832V16.0832C17.3307 16.7735 16.7711 17.3332 16.0807 17.3332H11.0807C10.3904 17.3332 9.83073 16.7735 9.83073 16.0832V11.0832C9.83073 10.3928 10.3904 9.83317 11.0807 9.83317H16.0807ZM6.9165 9.83317C7.60686 9.83317 8.1665 10.3928 8.1665 11.0832V16.0832C8.1665 16.7735 7.60686 17.3332 6.9165 17.3332H1.9165C1.22615 17.3332 0.666504 16.7735 0.666504 16.0832V11.0832C0.666504 10.3928 1.22615 9.83317 1.9165 9.83317H6.9165ZM15.914 11.2498H11.2473V15.9165H15.914V11.2498ZM6.74984 11.2498H2.08317V15.9165H6.74984V11.2498ZM6.9165 0.666504C7.60686 0.666504 8.1665 1.22615 8.1665 1.9165V6.9165C8.1665 7.60686 7.60686 8.1665 6.9165 8.1665H1.9165C1.22615 8.1665 0.666504 7.60686 0.666504 6.9165V1.9165C0.666504 1.22615 1.22615 0.666504 1.9165 0.666504H6.9165ZM16.0807 0.666504C16.7711 0.666504 17.3307 1.22615 17.3307 1.9165V6.9165C17.3307 7.60686 16.7711 8.1665 16.0807 8.1665H11.0807C10.3904 8.1665 9.83073 7.60686 9.83073 6.9165V1.9165C9.83073 1.22615 10.3904 0.666504 11.0807 0.666504H16.0807ZM6.74984 2.08317H2.08317V6.74984H6.74984V2.08317ZM15.914 2.08317H11.2473V6.74984H15.914V2.08317Z" fill="white"/>
</svg>
