<svg width="18" height="18" viewBox="0 0 18 18" fill="none" xmlns="http://www.w3.org/2000/svg">
<path d="M2.43891 2.49165L14.924 7.22495L10.5643 9.16558C9.92543 9.44161 9.4159 9.94924 9.1388 10.5856L7.20249 14.9284L2.4508 2.49165H2.43891ZM1.14411 0.125C0.978396 0.125419 0.815239 0.165973 0.668771 0.243195C0.522304 0.320418 0.396882 0.431974 0.303346 0.568241C0.20981 0.704509 0.150895 0.861409 0.131799 1.02539C0.112704 1.18936 0.133982 1.35549 0.193719 1.50947L6.13333 17.2122C6.2063 17.4075 6.33769 17.5758 6.50977 17.6943C6.68186 17.8128 6.88641 17.8758 7.09561 17.8749C7.29598 17.878 7.49261 17.821 7.65999 17.7113C7.82738 17.6015 7.95766 17.4441 8.03397 17.2595L10.7187 11.2601C10.8175 11.0249 11.0053 10.8378 11.2414 10.7394L17.276 8.0651C17.4599 7.98022 17.6147 7.84338 17.7211 7.67159C17.8275 7.4998 17.8808 7.30064 17.8745 7.09888C17.8682 6.89713 17.8024 6.70171 17.6854 6.53687C17.5684 6.37203 17.4054 6.24505 17.2166 6.17177L1.46473 0.255148C1.34333 0.208911 1.21463 0.184863 1.08466 0.184152L1.14411 0.125Z" fill="white"/>
</svg>
